<svg width="424" height="256" viewBox="0 0 424 256" fill="none" xmlns="http://www.w3.org/2000/svg">
<path d="M4 2C4 3.10457 3.10457 4 2 4C0.89543 4 0 3.10457 0 2C0 0.89543 0.89543 0 2 0C3.10457 0 4 0.89543 4 2Z" fill="white"/>
<path d="M4 86C4 87.1046 3.10457 88 2 88C0.89543 88 0 87.1046 0 86C0 84.8954 0.89543 84 2 84C3.10457 84 4 84.8954 4 86Z" fill="white"/>
<path d="M4 170C4 171.105 3.10457 172 2 172C0.89543 172 0 171.105 0 170C0 168.895 0.89543 168 2 168C3.10457 168 4 168.895 4 170Z" fill="white"/>
<path d="M4 254C4 255.105 3.10457 256 2 256C0.89543 256 0 255.105 0 254C0 252.895 0.89543 252 2 252C3.10457 252 4 252.895 4 254Z" fill="white"/>
<path d="M88 2C88 3.10457 87.1046 4 86 4C84.8954 4 84 3.10457 84 2C84 0.89543 84.8954 0 86 0C87.1046 0 88 0.89543 88 2Z" fill="white"/>
<path d="M88 86C88 87.1046 87.1046 88 86 88C84.8954 88 84 87.1046 84 86C84 84.8954 84.8954 84 86 84C87.1046 84 88 84.8954 88 86Z" fill="white"/>
<path d="M88 170C88 171.105 87.1046 172 86 172C84.8954 172 84 171.105 84 170C84 168.895 84.8954 168 86 168C87.1046 168 88 168.895 88 170Z" fill="white"/>
<path d="M88 254C88 255.105 87.1046 256 86 256C84.8954 256 84 255.105 84 254C84 252.895 84.8954 252 86 252C87.1046 252 88 252.895 88 254Z" fill="white"/>
<path d="M172 2C172 3.10457 171.105 4 170 4C168.895 4 168 3.10457 168 2C168 0.89543 168.895 0 170 0C171.105 0 172 0.89543 172 2Z" fill="white"/>
<path d="M172 86C172 87.1046 171.105 88 170 88C168.895 88 168 87.1046 168 86C168 84.8954 168.895 84 170 84C171.105 84 172 84.8954 172 86Z" fill="white"/>
<path d="M172 170C172 171.105 171.105 172 170 172C168.895 172 168 171.105 168 170C168 168.895 168.895 168 170 168C171.105 168 172 168.895 172 170Z" fill="white"/>
<path d="M172 254C172 255.105 171.105 256 170 256C168.895 256 168 255.105 168 254C168 252.895 168.895 252 170 252C171.105 252 172 252.895 172 254Z" fill="white"/>
<path d="M256 2C256 3.10457 255.105 4 254 4C252.895 4 252 3.10457 252 2C252 0.89543 252.895 0 254 0C255.105 0 256 0.89543 256 2Z" fill="white"/>
<path d="M256 86C256 87.1046 255.105 88 254 88C252.895 88 252 87.1046 252 86C252 84.8954 252.895 84 254 84C255.105 84 256 84.8954 256 86Z" fill="white"/>
<path d="M256 170C256 171.105 255.105 172 254 172C252.895 172 252 171.105 252 170C252 168.895 252.895 168 254 168C255.105 168 256 168.895 256 170Z" fill="white"/>
<path d="M256 254C256 255.105 255.105 256 254 256C252.895 256 252 255.105 252 254C252 252.895 252.895 252 254 252C255.105 252 256 252.895 256 254Z" fill="white"/>
<path d="M340 2C340 3.10457 339.105 4 338 4C336.895 4 336 3.10457 336 2C336 0.89543 336.895 0 338 0C339.105 0 340 0.89543 340 2Z" fill="white"/>
<path d="M340 86C340 87.1046 339.105 88 338 88C336.895 88 336 87.1046 336 86C336 84.8954 336.895 84 338 84C339.105 84 340 84.8954 340 86Z" fill="white"/>
<path d="M340 170C340 171.105 339.105 172 338 172C336.895 172 336 171.105 336 170C336 168.895 336.895 168 338 168C339.105 168 340 168.895 340 170Z" fill="white"/>
<path d="M340 254C340 255.105 339.105 256 338 256C336.895 256 336 255.105 336 254C336 252.895 336.895 252 338 252C339.105 252 340 252.895 340 254Z" fill="white"/>
<path d="M424 2C424 3.10457 423.105 4 422 4C420.895 4 420 3.10457 420 2C420 0.89543 420.895 0 422 0C423.105 0 424 0.89543 424 2Z" fill="white"/>
<path d="M424 86C424 87.1046 423.105 88 422 88C420.895 88 420 87.1046 420 86C420 84.8954 420.895 84 422 84C423.105 84 424 84.8954 424 86Z" fill="white"/>
<path d="M424 170C424 171.105 423.105 172 422 172C420.895 172 420 171.105 420 170C420 168.895 420.895 168 422 168C423.105 168 424 168.895 424 170Z" fill="white"/>
<path d="M424 254C424 255.105 423.105 256 422 256C420.895 256 420 255.105 420 254C420 252.895 420.895 252 422 252C423.105 252 424 252.895 424 254Z" fill="white"/>
</svg>
